<svg width="25" height="26" viewBox="0 0 25 26" fill="none" xmlns="http://www.w3.org/2000/svg">
<path d="M13.3536 17.3536C13.1583 17.5488 12.8417 17.5488 12.6464 17.3536L9.46447 14.1716C9.2692 13.9763 9.2692 13.6597 9.46447 13.4645C9.65973 13.2692 9.97631 13.2692 10.1716 13.4645L13 16.2929L15.8284 13.4645C16.0237 13.2692 16.3403 13.2692 16.5355 13.4645C16.7308 13.6597 16.7308 13.9763 16.5355 14.1716L13.3536 17.3536ZM12.5 6C12.5 5.72386 12.7239 5.5 13 5.5C13.2761 5.5 13.5 5.72386 13.5 6L12.5 6ZM12.5 17L12.5 6L13.5 6L13.5 17L12.5 17Z" fill="#00D2C9"/>
<path d="M17 20L9 20" stroke="#00D2C9" stroke-linecap="round"/>
</svg>
