<svg width="112" height="76" viewBox="0 0 112 76" fill="none" xmlns="http://www.w3.org/2000/svg">
<rect width="111.6" height="76" rx="5" fill="#F0F0F0"/>
<path d="M29.1792 27.096H36.1752V30H25.9012V14.71H29.1792V27.096ZM44.3126 30.286C39.8246 30.286 36.3266 26.854 36.3266 22.366C36.3266 17.856 39.8246 14.424 44.3126 14.424C48.8006 14.424 52.2766 17.856 52.2766 22.366C52.2766 26.854 48.8006 30.286 44.3126 30.286ZM44.3126 27.184C47.0846 27.184 48.9546 25.182 48.9546 22.344C48.9546 19.55 47.1286 17.526 44.3126 17.526C41.4966 17.526 39.6486 19.55 39.6486 22.344C39.6486 25.182 41.5406 27.184 44.3126 27.184ZM69.4364 21.794C69.4364 27.228 66.0704 30.286 61.6924 30.286C57.1164 30.286 53.7724 26.92 53.7724 22.366C53.7724 17.768 57.1604 14.424 61.6924 14.424C65.4544 14.424 67.8964 16.624 68.8204 19.066L65.6964 20.364C65.1024 18.604 63.6944 17.526 61.6264 17.526C58.8984 17.526 57.0944 19.506 57.0944 22.432C57.0944 25.38 58.9204 27.338 61.9784 27.338C64.0904 27.338 65.6304 26.37 66.2464 24.258H61.6044V21.794H69.4364ZM78.795 30.286C74.307 30.286 70.809 26.854 70.809 22.366C70.809 17.856 74.307 14.424 78.795 14.424C83.283 14.424 86.759 17.856 86.759 22.366C86.759 26.854 83.283 30.286 78.795 30.286ZM78.795 27.184C81.567 27.184 83.437 25.182 83.437 22.344C83.437 19.55 81.611 17.526 78.795 17.526C75.979 17.526 74.131 19.55 74.131 22.344C74.131 25.182 76.023 27.184 78.795 27.184ZM39.4349 45.71H42.7129V61H39.4349V54.664H33.6049V61H30.3269V45.71H33.6049V51.738H39.4349V45.71ZM48.8159 58.162H55.9219V61H45.5379V45.71H55.7899V48.548H48.8159V51.804H54.9759V54.642H48.8159V58.162ZM66.3557 61L61.9997 54.73H61.3617V61H58.1277V45.71H64.3757C67.6537 45.71 69.7217 47.602 69.7217 50.22C69.7217 52.552 68.0717 54.29 65.4317 54.664L69.9857 61H66.3557ZM61.3617 48.57V52.42H64.2877C65.7177 52.42 66.5317 51.672 66.5317 50.506C66.5317 49.318 65.7177 48.57 64.2877 48.57H61.3617ZM75.1772 58.162H82.2832V61H71.8992V45.71H82.1512V48.548H75.1772V51.804H81.3372V54.642H75.1772V58.162Z" fill="black"/>
</svg>
