<svg width="48" height="48" viewBox="0 0 48 48" fill="none" xmlns="http://www.w3.org/2000/svg">
<path d="M30.4903 12.1606H17.511V35.3981H30.4903V12.1606Z" fill="#EB611D"/>
<path d="M18.3346 23.7775C18.3346 19.0646 20.5499 14.8642 23.9988 12.1605C21.4769 10.1804 18.292 9 14.8334 9C6.63996 9 6.10352e-05 15.6168 6.10352e-05 23.7775C6.10352e-05 31.9394 6.63996 38.555 14.8334 38.555C18.2932 38.555 21.4781 37.3747 24 35.3969C20.5499 32.6896 18.3346 28.4941 18.3346 23.7775Z" fill="#E41322"/>
<path d="M48 23.7775C48 31.9394 41.3601 38.555 33.1655 38.555C29.7069 38.555 26.522 37.3747 23.9988 35.3969C27.4502 32.6884 29.6655 28.4929 29.6655 23.7775C29.6655 19.0646 27.4502 14.8642 23.9988 12.1605C26.5232 10.1804 29.7069 9 33.1667 9C41.3614 9 48 15.6168 48 23.7775Z" fill="#F59E21"/>
</svg>
