<svg width="25" height="26" viewBox="0 0 25 26" fill="none" xmlns="http://www.w3.org/2000/svg">
<g clip-path="url(#clip0_35_1856)">
<path d="M22.8954 19.15L20.5459 14.675C20.4409 14.45 20.3753 14.2125 20.3753 13.975V10.5C20.3753 6.675 17.3696 3.525 13.4844 3.0625V1.4375C13.4844 0.925 13.0381 0.5 12.5 0.5C11.9619 0.5 11.5156 0.925 11.5156 1.4375V3.0625C7.63043 3.525 4.62469 6.675 4.62469 10.5V13.975C4.62469 14.2125 4.55906 14.45 4.45406 14.675L2.10459 19.15C1.94708 19.4375 1.97333 19.775 2.14397 20.05C2.32772 20.3375 2.64274 20.5 2.984 20.5H8.56234V21.75C8.56234 23.8125 10.3343 25.5 12.5 25.5C14.6657 25.5 16.4377 23.8125 16.4377 21.75V20.5H22.016C22.3573 20.5 22.6723 20.3375 22.856 20.05C23.0267 19.775 23.0529 19.4375 22.8954 19.15ZM14.4688 21.75C14.4688 22.7875 13.5894 23.625 12.5 23.625C11.4106 23.625 10.5312 22.7875 10.5312 21.75V20.5H14.4688V21.75ZM4.57219 18.625L6.21288 15.5125C6.46226 15.0375 6.59352 14.5 6.59352 13.975V10.5C6.59352 7.4 9.24487 4.875 12.5 4.875C15.7551 4.875 18.4065 7.4 18.4065 10.5V13.975C18.4065 14.5 18.5377 15.0375 18.7871 15.5125L20.4278 18.625H4.57219Z" fill="#121331"/>
</g>
<defs>
<clipPath id="clip0_35_1856">
<rect width="25" height="25" fill="white" transform="translate(0 0.5)"/>
</clipPath>
</defs>
</svg>
