<svg width="25" height="26" viewBox="0 0 25 26" fill="none" xmlns="http://www.w3.org/2000/svg">
<path d="M12.6464 6.14645C12.8417 5.95118 13.1583 5.95118 13.3536 6.14645L16.5355 9.32843C16.7308 9.52369 16.7308 9.84027 16.5355 10.0355C16.3403 10.2308 16.0237 10.2308 15.8284 10.0355L13 7.20711L10.1716 10.0355C9.97631 10.2308 9.65973 10.2308 9.46447 10.0355C9.2692 9.84027 9.2692 9.52369 9.46447 9.32843L12.6464 6.14645ZM13.5 17.5C13.5 17.7761 13.2761 18 13 18C12.7239 18 12.5 17.7761 12.5 17.5L13.5 17.5ZM13.5 6.5L13.5 17.5L12.5 17.5L12.5 6.5L13.5 6.5Z" fill="#006DFF"/>
<path d="M9 20H17" stroke="#006DFF" stroke-linecap="round"/>
</svg>
