<svg width="25" height="26" viewBox="0 0 25 26" fill="none" xmlns="http://www.w3.org/2000/svg">
<path d="M6.64645 13.6036C6.45118 13.4083 6.45118 13.0917 6.64645 12.8964L9.82843 9.71447C10.0237 9.5192 10.3403 9.5192 10.5355 9.71447C10.7308 9.90973 10.7308 10.2263 10.5355 10.4216L7.70711 13.25L10.5355 16.0784C10.7308 16.2737 10.7308 16.5903 10.5355 16.7855C10.3403 16.9808 10.0237 16.9808 9.82843 16.7855L6.64645 13.6036ZM18 12.75C18.2761 12.75 18.5 12.9739 18.5 13.25C18.5 13.5261 18.2761 13.75 18 13.75L18 12.75ZM7 12.75L18 12.75L18 13.75L7 13.75L7 12.75Z" fill="#472836"/>
</svg>
