<svg width="25" height="26" viewBox="0 0 25 26" fill="none" xmlns="http://www.w3.org/2000/svg">
<g clip-path="url(#clip0_35_1860)">
<path d="M21.1255 3.9528C18.7008 1.6531 15.5387 0.42826 12.2017 0.50325C8.8646 0.590739 5.7525 1.96556 3.4528 4.37775C1.1531 6.80243 -0.0717401 9.96452 0.00325019 13.3016C0.0907388 16.6387 1.46556 19.7507 3.87775 22.0504C3.97773 22.1504 4.07772 22.2379 4.19021 22.3254C6.48991 24.3876 9.40203 25.5 12.4891 25.5H12.8016C15.7887 25.425 18.6008 24.3127 20.813 22.3254C21.063 22.1129 21.313 21.8755 21.5504 21.6255C23.7877 19.2758 25 16.2262 25 12.9891V12.7017C24.9125 9.3646 23.5377 6.2525 21.1255 3.9528ZM12.7641 23.6252C10.2394 23.6752 7.82723 22.8628 5.88999 21.3005C6.45241 19.7257 7.98971 18.6384 9.68949 18.6384H15.3138C17.0135 18.6384 18.5508 19.7257 19.1133 21.3005C17.3135 22.7629 15.1138 23.5628 12.7641 23.6252ZM20.5506 19.9132C19.5382 18.026 17.5385 16.7636 15.3138 16.7636H9.68949C7.46478 16.7636 5.45254 18.026 4.45267 19.9257C2.84038 18.076 1.9405 15.7513 1.87801 13.2641C1.81551 10.427 2.85288 7.72731 4.81512 5.67758C6.76487 3.61535 9.40203 2.453 12.2392 2.37801H12.5141C15.2513 2.37801 17.8384 3.41537 19.8257 5.31512C20.8505 6.29 21.6629 7.43985 22.2254 8.68969C22.7753 9.95202 23.0877 11.3268 23.1252 12.7392C23.1877 15.3888 22.2879 17.926 20.5506 19.9132Z" fill="#121331"/>
<path d="M15.9389 14.8766H12.1894C9.9522 14.8766 8.12744 13.0518 8.12744 10.8146V8.31496C8.12744 6.07775 9.9522 4.25299 12.1894 4.25299H12.8143C15.0515 4.25299 16.8763 6.07775 16.8763 8.31496V13.9392C16.8763 14.4517 16.4514 14.8766 15.9389 14.8766ZM12.1894 6.12775C10.9896 6.12775 10.0022 7.11512 10.0022 8.31496V10.8146C10.0022 12.0145 10.9896 13.0019 12.1894 13.0019H15.0015V8.31496C15.0015 7.11512 14.0142 6.12775 12.8143 6.12775H12.1894Z" fill="#121331"/>
</g>
<defs>
<clipPath id="clip0_35_1860">
<rect width="25" height="25" fill="white" transform="translate(0 0.5)"/>
</clipPath>
</defs>
</svg>
