<svg width="48" height="48" viewBox="0 0 48 48" fill="none" xmlns="http://www.w3.org/2000/svg">
<path fill-rule="evenodd" clip-rule="evenodd" d="M4.0861 18.3292C2.89038 17.5982 1.52573 17.0103 0 16.6024L0.0639142 16.2845H6.32025C7.16813 16.3179 7.85612 16.6024 8.0801 17.6059L9.43993 24.8337L9.85608 27.009L13.664 16.2845H17.7758L11.664 31.9948H7.55223L4.0861 18.3292ZM16.8968 32.0316L19.329 16.3041H23.2171L20.7849 32.0316H16.8968ZM34.896 16.6692L34.3682 20.0655L34.0163 19.8985C33.3121 19.5804 32.3841 19.2626 31.12 19.2963C29.5841 19.2963 28.8962 19.9817 28.8799 20.6511C28.8799 21.3872 29.7123 21.8728 31.0722 22.5921C33.3121 23.7129 34.3519 25.0847 34.336 26.8752C34.3043 30.1375 31.6481 32.2462 27.5681 32.2462C25.8242 32.2291 24.1442 31.8448 23.2323 31.4096L23.7761 27.8792L24.288 28.1298C25.5522 28.7158 26.3842 28.9669 27.9363 28.9669C29.0562 28.9669 30.2561 28.4814 30.272 27.4273C30.272 26.7412 29.76 26.2394 28.256 25.4697C26.7842 24.7167 24.8162 23.4618 24.848 21.2032C24.8643 18.1416 27.5681 16 31.4082 16C32.9122 16 34.1283 16.3514 34.896 16.6692ZM44.864 16.2845L48 32.0119H44.3998C44.3998 32.0119 44.0479 30.2046 43.936 29.6526H38.9441C38.7999 30.0709 38.1279 32.0119 38.1279 32.0119H34.048L39.8238 17.5896C40.2238 16.569 40.9279 16.2845 41.856 16.2845H44.864ZM40.0641 26.44H43.2961C43.1361 25.6538 42.4001 21.889 42.4001 21.889L42.1281 20.5341C41.9359 21.1197 41.5999 22.0732 41.6161 22.0397C41.6161 22.0397 40.3842 25.5366 40.0641 26.44Z" fill="#2D51FF"/>
</svg>
